<svg width="18" height="15" viewBox="0 0 18 15" fill="none" xmlns="http://www.w3.org/2000/svg">
<path d="M1.00281 2.7551H17.1099C17.4521 2.7551 17.7294 2.48101 17.7294 2.14286V0.612245C17.7294 0.274094 17.4521 0 17.1099 0H1.00281C0.660645 0 0.383301 0.274094 0.383301 0.612245V2.14286C0.383301 2.48101 0.660645 2.7551 1.00281 2.7551ZM1.00281 8.87755H17.1099C17.4521 8.87755 17.7294 8.60346 17.7294 8.26531V6.73469C17.7294 6.39654 17.4521 6.12245 17.1099 6.12245H1.00281C0.660645 6.12245 0.383301 6.39654 0.383301 6.73469V8.26531C0.383301 8.60346 0.660645 8.87755 1.00281 8.87755ZM1.00281 15H17.1099C17.4521 15 17.7294 14.7259 17.7294 14.3878V12.8571C17.7294 12.519 17.4521 12.2449 17.1099 12.2449H1.00281C0.660645 12.2449 0.383301 12.519 0.383301 12.8571V14.3878C0.383301 14.7259 0.660645 15 1.00281 15Z" fill="white"/>
</svg>
