<svg width="199" height="32" viewBox="0 0 199 32" fill="none" xmlns="http://www.w3.org/2000/svg">
<path d="M8.65332 7.11035C8.84863 7.11035 9.04883 7.12012 9.25391 7.13965C9.45898 7.15918 9.71289 7.20801 10.0156 7.28613L9.62012 12.5156C9.23926 12.3887 8.74121 12.3252 8.12598 12.3252C7.16895 12.3252 6.4707 12.6133 6.03125 13.1895C5.60156 13.7559 5.38672 14.5811 5.38672 15.665V24H0.523438V7.40332H4.24414L4.94727 10.0547H5.18164C5.37695 9.60547 5.64062 9.15625 5.97266 8.70703C6.30469 8.24805 6.69531 7.86719 7.14453 7.56445C7.60352 7.26172 8.10645 7.11035 8.65332 7.11035ZM16.7328 7.13965C18.7152 7.13965 20.2533 7.79395 21.3471 9.10254C22.4506 10.4014 23.0023 12.2666 23.0023 14.6982V17.2471H15.0775C15.0775 18.3604 15.307 19.1709 15.766 19.6787C16.2348 20.1768 16.9477 20.4258 17.9047 20.4258C18.6664 20.4258 19.3744 20.3281 20.0287 20.1328C20.683 19.9375 21.391 19.6055 22.1527 19.1367V23.1064C21.4398 23.5264 20.6732 23.8291 19.8529 24.0146C19.0326 24.2002 18.1439 24.293 17.1869 24.293C14.7846 24.293 13.0365 23.5654 11.9428 22.1104C10.8588 20.6553 10.3168 18.5459 10.3168 15.7822C10.3168 13.0088 10.8539 10.875 11.9281 9.38086C13.0121 7.88672 14.6137 7.13965 16.7328 7.13965ZM16.85 10.8896C16.3422 10.8896 15.9174 11.1094 15.5756 11.5488C15.2436 11.9883 15.0775 12.75 15.0775 13.834H18.5053C18.5053 12.7793 18.3539 12.0273 18.0512 11.5781C17.7484 11.1191 17.348 10.8896 16.85 10.8896ZM26.8777 0.723633C27.7762 0.723633 28.4305 0.938477 28.8406 1.36816C29.2508 1.79785 29.4559 2.43262 29.4559 3.27246C29.4559 4.95215 28.5965 5.79199 26.8777 5.79199C25.159 5.79199 24.2996 4.95215 24.2996 3.27246C24.2996 2.41309 24.5047 1.77344 24.9148 1.35352C25.325 0.933594 25.9793 0.723633 26.8777 0.723633ZM29.3094 7.40332V24H24.4461V7.40332H29.3094ZM41.1535 18.9023C41.1535 20.6895 40.6506 22.0371 39.6447 22.9453C38.6486 23.8438 37.2619 24.293 35.4846 24.293C34.674 24.293 33.8781 24.2246 33.0969 24.0879C32.3156 23.9512 31.5393 23.7119 30.7678 23.3701V18.7852C31.3732 19.1465 32.0373 19.4639 32.76 19.7373C33.4924 20.001 34.2297 20.1328 34.9719 20.1328C35.8703 20.1328 36.3195 19.8105 36.3195 19.166C36.3195 18.9805 36.2707 18.8047 36.173 18.6387C36.0852 18.4629 35.8654 18.2529 35.5139 18.0088C35.1623 17.7646 34.6008 17.4521 33.8293 17.0713C31.7687 16.0361 30.7385 14.3467 30.7385 12.0029C30.7385 10.46 31.2072 9.25879 32.1447 8.39941C33.0822 7.54004 34.4152 7.11035 36.1437 7.11035C37.0031 7.11035 37.8137 7.23242 38.5754 7.47656C39.3371 7.71094 40.1135 8.05762 40.9045 8.5166L39.718 12.208C39.2199 11.876 38.6926 11.5879 38.1359 11.3438C37.5793 11.0996 37.0129 10.9775 36.4367 10.9775C35.7629 10.9775 35.426 11.2363 35.426 11.7539C35.426 11.9297 35.4699 12.0908 35.5578 12.2373C35.6555 12.3838 35.8703 12.5693 36.2023 12.7939C36.5344 13.0088 37.052 13.3262 37.7551 13.7461C38.7707 14.3125 39.591 14.9961 40.216 15.7969C40.841 16.5879 41.1535 17.623 41.1535 18.9023ZM48.3688 7.13965C50.3512 7.13965 51.8893 7.79395 52.983 9.10254C54.0865 10.4014 54.6383 12.2666 54.6383 14.6982V17.2471H46.7135C46.7135 18.3604 46.943 19.1709 47.402 19.6787C47.8707 20.1768 48.5836 20.4258 49.5406 20.4258C50.3023 20.4258 51.0104 20.3281 51.6646 20.1328C52.3189 19.9375 53.027 19.6055 53.7887 19.1367V23.1064C53.0758 23.5264 52.3092 23.8291 51.4889 24.0146C50.6686 24.2002 49.7799 24.293 48.8229 24.293C46.4205 24.293 44.6725 23.5654 43.5787 22.1104C42.4947 20.6553 41.9527 18.5459 41.9527 15.7822C41.9527 13.0088 42.4898 10.875 43.5641 9.38086C44.648 7.88672 46.2496 7.13965 48.3688 7.13965ZM48.4859 10.8896C47.9781 10.8896 47.5533 11.1094 47.2115 11.5488C46.8795 11.9883 46.7135 12.75 46.7135 13.834H50.1412C50.1412 12.7793 49.9898 12.0273 49.6871 11.5781C49.3844 11.1191 48.984 10.8896 48.4859 10.8896ZM72.3125 7.11035C75.2812 7.11035 76.7656 9.1416 76.7656 13.2041V24H71.9023V14.7861C71.9023 12.5498 71.4629 11.4316 70.584 11.4316C69.9004 11.4316 69.4365 11.8076 69.1924 12.5596C68.958 13.3018 68.8408 14.4736 68.8408 16.0752V24H63.9775V14.7861C63.9775 12.5498 63.5479 11.4316 62.6885 11.4316C62.0146 11.4316 61.5508 11.832 61.2969 12.6328C61.043 13.4336 60.916 14.7422 60.916 16.5586V24H56.0527V7.40332H59.8613L60.4033 9.4541H60.6816C60.9941 8.68262 61.502 8.10156 62.2051 7.71094C62.9082 7.31055 63.7383 7.11035 64.6953 7.11035C65.6719 7.11035 66.4482 7.31543 67.0244 7.72559C67.6006 8.13574 68.0156 8.6582 68.2695 9.29297H68.5918C68.9727 8.59961 69.4658 8.0625 70.0713 7.68164C70.6865 7.30078 71.4336 7.11035 72.3125 7.11035ZM85.3139 7.11035C86.9643 7.11035 88.268 7.60352 89.225 8.58984C90.1918 9.57617 90.6752 11.085 90.6752 13.1162V24H87.1742L86.3539 21.8027H86.266C85.7289 22.6426 85.143 23.2676 84.5082 23.6777C83.8832 24.0879 83.0482 24.293 82.0033 24.293C81.0561 24.293 80.2943 24.0342 79.7182 23.5166C79.142 22.999 78.7221 22.3301 78.4584 21.5098C78.2045 20.6895 78.0775 19.8301 78.0775 18.9316C78.0775 17.1543 78.5512 15.8262 79.4984 14.9473C80.4555 14.0684 81.8422 13.5947 83.6586 13.5264L85.8266 13.4385V13.0137C85.8266 11.6562 85.2943 10.9775 84.2299 10.9775C83.3021 10.9775 82.1107 11.3877 80.6557 12.208L79.3959 8.60449C80.2064 8.12598 81.1098 7.75977 82.1059 7.50586C83.102 7.24219 84.1713 7.11035 85.3139 7.11035ZM85.8266 16.5879L84.9184 16.6465C83.6 16.7051 82.9408 17.3984 82.9408 18.7266C82.9408 19.8594 83.3314 20.4258 84.1127 20.4258C84.5912 20.4258 84.9965 20.2109 85.3285 19.7812C85.6605 19.3418 85.8266 18.7656 85.8266 18.0527V16.5879ZM97.5535 31.207C95.5809 31.207 94.0623 30.8018 92.9978 29.9912C91.9334 29.1807 91.4012 28.0283 91.4012 26.5342C91.4012 25.665 91.6893 24.8887 92.2654 24.2051C92.8416 23.5312 93.6033 23.0576 94.5506 22.7842C94.0525 22.5986 93.6375 22.2959 93.3055 21.876C92.9832 21.4463 92.8221 20.9482 92.8221 20.3818C92.8221 19.7178 92.9686 19.1953 93.2615 18.8145C93.5545 18.4238 93.9451 18.0088 94.4334 17.5693C93.8182 17.1396 93.3201 16.4951 92.9393 15.6357C92.5584 14.7764 92.368 13.8486 92.368 12.8525C92.368 11.0264 92.8807 9.625 93.9061 8.64844C94.9412 7.67187 96.4402 7.18359 98.4031 7.18359C98.9891 7.18359 99.4676 7.22754 99.8387 7.31543C100.21 7.39355 100.508 7.47168 100.732 7.5498H105.918V10.3916L104.087 10.9043C104.223 11.2363 104.316 11.5537 104.365 11.8564C104.424 12.1592 104.453 12.5254 104.453 12.9551C104.453 14.7715 103.93 16.1729 102.886 17.1592C101.85 18.1357 100.376 18.624 98.4617 18.624C97.8953 18.624 97.4803 18.5752 97.2166 18.4775C97.1189 18.5752 97.0115 18.6973 96.8943 18.8438C96.7869 18.9902 96.7332 19.1807 96.7332 19.415C96.7332 19.9912 97.2996 20.2793 98.4324 20.2793H101.391C102.759 20.2793 103.808 20.6602 104.541 21.4219C105.273 22.1738 105.639 23.3213 105.639 24.8643C105.639 26.915 104.956 28.4824 103.589 29.5664C102.231 30.6602 100.22 31.207 97.5535 31.207ZM98.4324 15.3281C99.2137 15.3281 99.6043 14.5225 99.6043 12.9111C99.6043 11.2607 99.2137 10.4355 98.4324 10.4355C97.6316 10.4355 97.2312 11.251 97.2312 12.8818C97.2312 14.5127 97.6316 15.3281 98.4324 15.3281ZM97.8904 27.6621C99.0135 27.6621 99.8289 27.4863 100.337 27.1348C100.854 26.793 101.113 26.3145 101.113 25.6992C101.113 25.2402 101.001 24.9375 100.776 24.791C100.552 24.6543 100.029 24.5859 99.2088 24.5859H96.9529C96.24 24.5859 95.8836 25.1133 95.8836 26.168C95.8836 26.6562 96.0594 27.0273 96.4109 27.2812C96.7723 27.5352 97.2654 27.6621 97.8904 27.6621ZM113.279 7.11035C114.93 7.11035 116.234 7.60352 117.191 8.58984C118.157 9.57617 118.641 11.085 118.641 13.1162V24H115.14L114.32 21.8027H114.232C113.695 22.6426 113.109 23.2676 112.474 23.6777C111.849 24.0879 111.014 24.293 109.969 24.293C109.022 24.293 108.26 24.0342 107.684 23.5166C107.108 22.999 106.688 22.3301 106.424 21.5098C106.17 20.6895 106.043 19.8301 106.043 18.9316C106.043 17.1543 106.517 15.8262 107.464 14.9473C108.421 14.0684 109.808 13.5947 111.624 13.5264L113.792 13.4385V13.0137C113.792 11.6562 113.26 10.9775 112.196 10.9775C111.268 10.9775 110.076 11.3877 108.621 12.208L107.362 8.60449C108.172 8.12598 109.075 7.75977 110.071 7.50586C111.068 7.24219 112.137 7.11035 113.279 7.11035ZM113.792 16.5879L112.884 16.6465C111.566 16.7051 110.906 17.3984 110.906 18.7266C110.906 19.8594 111.297 20.4258 112.078 20.4258C112.557 20.4258 112.962 20.2109 113.294 19.7812C113.626 19.3418 113.792 18.7656 113.792 18.0527V16.5879ZM130.617 24H119.704V21.0557L124.948 11.4609H119.997V7.40332H130.382V10.626L125.373 19.957H130.617V24ZM134.199 0.723633C135.098 0.723633 135.752 0.938477 136.162 1.36816C136.572 1.79785 136.777 2.43262 136.777 3.27246C136.777 4.95215 135.918 5.79199 134.199 5.79199C132.48 5.79199 131.621 4.95215 131.621 3.27246C131.621 2.41309 131.826 1.77344 132.236 1.35352C132.646 0.933594 133.301 0.723633 134.199 0.723633ZM136.631 7.40332V24H131.768V7.40332H136.631ZM147.157 7.11035C148.592 7.11035 149.71 7.64258 150.511 8.70703C151.312 9.77148 151.712 11.2705 151.712 13.2041V24H146.849V14.7568C146.849 13.6631 146.761 12.8379 146.585 12.2812C146.41 11.7148 146.019 11.4316 145.413 11.4316C144.73 11.4316 144.266 11.793 144.022 12.5156C143.788 13.2383 143.67 14.5371 143.67 16.4121V24H138.807V7.40332H142.616L143.158 9.4541H143.436C144.178 7.8916 145.418 7.11035 147.157 7.11035ZM169.439 7.11035C170.874 7.11035 171.992 7.64258 172.793 8.70703C173.594 9.77148 173.994 11.2705 173.994 13.2041V24H169.131V14.7568C169.131 13.6631 169.043 12.8379 168.867 12.2812C168.692 11.7148 168.301 11.4316 167.696 11.4316C167.012 11.4316 166.548 11.793 166.304 12.5156C166.07 13.2383 165.952 14.5371 165.952 16.4121V24H161.089V7.40332H164.898L165.44 9.4541H165.718C166.46 7.8916 167.7 7.11035 169.439 7.11035ZM181.957 7.13965C183.939 7.13965 185.477 7.79395 186.571 9.10254C187.674 10.4014 188.226 12.2666 188.226 14.6982V17.2471H180.301C180.301 18.3604 180.531 19.1709 180.99 19.6787C181.459 20.1768 182.171 20.4258 183.129 20.4258C183.89 20.4258 184.598 20.3281 185.253 20.1328C185.907 19.9375 186.615 19.6055 187.377 19.1367V23.1064C186.664 23.5264 185.897 23.8291 185.077 24.0146C184.256 24.2002 183.368 24.293 182.411 24.293C180.008 24.293 178.26 23.5654 177.167 22.1104C176.083 20.6553 175.541 18.5459 175.541 15.7822C175.541 13.0088 176.078 10.875 177.152 9.38086C178.236 7.88672 179.837 7.13965 181.957 7.13965ZM182.074 10.8896C181.566 10.8896 181.141 11.1094 180.799 11.5488C180.467 11.9883 180.301 12.75 180.301 13.834H183.729C183.729 12.7793 183.578 12.0273 183.275 11.5781C182.972 11.1191 182.572 10.8896 182.074 10.8896ZM196.101 20.1035C196.403 20.1035 196.73 20.0547 197.082 19.957C197.443 19.8496 197.824 19.708 198.225 19.5322V23.3701C197.688 23.6729 197.121 23.9023 196.525 24.0586C195.939 24.2148 195.305 24.293 194.621 24.293C192.99 24.293 191.818 23.8242 191.105 22.8867C190.393 21.9395 190.036 20.4893 190.036 18.5361V11.4023H188.352V8.82422L190.461 7.56445L191.604 4.07812H194.899V7.40332H198.02V11.4023H194.899V18.4775C194.899 19.5615 195.3 20.1035 196.101 20.1035Z" fill="white"/>
<path d="M153.639 21.5684C153.639 20.6699 153.879 19.9766 154.357 19.4883C154.846 19 155.539 18.7559 156.437 18.7559C157.306 18.7559 157.971 19 158.429 19.4883C158.898 19.9766 159.133 20.6699 159.133 21.5684C159.133 22.457 158.893 23.1455 158.415 23.6338C157.946 24.1221 157.287 24.3662 156.437 24.3662C155.578 24.3662 154.894 24.1221 154.387 23.6338C153.888 23.1455 153.639 22.457 153.639 21.5684Z" fill="#FF4F4F"/>
</svg>
